%TF.GenerationSoftware,KiCad,Pcbnew,(5.99.0-2965-g3673c2369)*%
%TF.CreationDate,2020-08-26T09:47:43+03:00*%
%TF.ProjectId,pimentero,70696d65-6e74-4657-926f-2e6b69636164,rev?*%
%TF.SameCoordinates,Original*%
%TF.FileFunction,Paste,Top*%
%TF.FilePolarity,Positive*%
%FSLAX46Y46*%
G04 Gerber Fmt 4.6, Leading zero omitted, Abs format (unit mm)*
G04 Created by KiCad (PCBNEW (5.99.0-2965-g3673c2369)) date 2020-08-26 09:47:43*
%MOMM*%
%LPD*%
G01*
G04 APERTURE LIST*
%ADD10R,0.800000X0.900000*%
G04 APERTURE END LIST*
%TO.C,C4*%
G36*
G01*
X118161000Y-71189000D02*
X118161000Y-70289000D01*
G75*
G02*
X118411000Y-70039000I250000J0D01*
G01*
X119061000Y-70039000D01*
G75*
G02*
X119311000Y-70289000I0J-250000D01*
G01*
X119311000Y-71189000D01*
G75*
G02*
X119061000Y-71439000I-250000J0D01*
G01*
X118411000Y-71439000D01*
G75*
G02*
X118161000Y-71189000I0J250000D01*
G01*
G37*
G36*
G01*
X120211000Y-71189000D02*
X120211000Y-70289000D01*
G75*
G02*
X120461000Y-70039000I250000J0D01*
G01*
X121111000Y-70039000D01*
G75*
G02*
X121361000Y-70289000I0J-250000D01*
G01*
X121361000Y-71189000D01*
G75*
G02*
X121111000Y-71439000I-250000J0D01*
G01*
X120461000Y-71439000D01*
G75*
G02*
X120211000Y-71189000I0J250000D01*
G01*
G37*
%TD*%
%TO.C,R4*%
G36*
G01*
X107112000Y-71189000D02*
X107112000Y-70289000D01*
G75*
G02*
X107362000Y-70039000I250000J0D01*
G01*
X108012000Y-70039000D01*
G75*
G02*
X108262000Y-70289000I0J-250000D01*
G01*
X108262000Y-71189000D01*
G75*
G02*
X108012000Y-71439000I-250000J0D01*
G01*
X107362000Y-71439000D01*
G75*
G02*
X107112000Y-71189000I0J250000D01*
G01*
G37*
G36*
G01*
X109162000Y-71189000D02*
X109162000Y-70289000D01*
G75*
G02*
X109412000Y-70039000I250000J0D01*
G01*
X110062000Y-70039000D01*
G75*
G02*
X110312000Y-70289000I0J-250000D01*
G01*
X110312000Y-71189000D01*
G75*
G02*
X110062000Y-71439000I-250000J0D01*
G01*
X109412000Y-71439000D01*
G75*
G02*
X109162000Y-71189000I0J250000D01*
G01*
G37*
%TD*%
%TO.C,C3*%
G36*
G01*
X118161000Y-73856000D02*
X118161000Y-72956000D01*
G75*
G02*
X118411000Y-72706000I250000J0D01*
G01*
X119061000Y-72706000D01*
G75*
G02*
X119311000Y-72956000I0J-250000D01*
G01*
X119311000Y-73856000D01*
G75*
G02*
X119061000Y-74106000I-250000J0D01*
G01*
X118411000Y-74106000D01*
G75*
G02*
X118161000Y-73856000I0J250000D01*
G01*
G37*
G36*
G01*
X120211000Y-73856000D02*
X120211000Y-72956000D01*
G75*
G02*
X120461000Y-72706000I250000J0D01*
G01*
X121111000Y-72706000D01*
G75*
G02*
X121361000Y-72956000I0J-250000D01*
G01*
X121361000Y-73856000D01*
G75*
G02*
X121111000Y-74106000I-250000J0D01*
G01*
X120461000Y-74106000D01*
G75*
G02*
X120211000Y-73856000I0J250000D01*
G01*
G37*
%TD*%
%TO.C,R3*%
G36*
G01*
X110312000Y-72956000D02*
X110312000Y-73856000D01*
G75*
G02*
X110062000Y-74106000I-250000J0D01*
G01*
X109412000Y-74106000D01*
G75*
G02*
X109162000Y-73856000I0J250000D01*
G01*
X109162000Y-72956000D01*
G75*
G02*
X109412000Y-72706000I250000J0D01*
G01*
X110062000Y-72706000D01*
G75*
G02*
X110312000Y-72956000I0J-250000D01*
G01*
G37*
G36*
G01*
X108262000Y-72956000D02*
X108262000Y-73856000D01*
G75*
G02*
X108012000Y-74106000I-250000J0D01*
G01*
X107362000Y-74106000D01*
G75*
G02*
X107112000Y-73856000I0J250000D01*
G01*
X107112000Y-72956000D01*
G75*
G02*
X107362000Y-72706000I250000J0D01*
G01*
X108012000Y-72706000D01*
G75*
G02*
X108262000Y-72956000I0J-250000D01*
G01*
G37*
%TD*%
%TO.C,R2*%
G36*
G01*
X121361000Y-67495000D02*
X121361000Y-68395000D01*
G75*
G02*
X121111000Y-68645000I-250000J0D01*
G01*
X120461000Y-68645000D01*
G75*
G02*
X120211000Y-68395000I0J250000D01*
G01*
X120211000Y-67495000D01*
G75*
G02*
X120461000Y-67245000I250000J0D01*
G01*
X121111000Y-67245000D01*
G75*
G02*
X121361000Y-67495000I0J-250000D01*
G01*
G37*
G36*
G01*
X119311000Y-67495000D02*
X119311000Y-68395000D01*
G75*
G02*
X119061000Y-68645000I-250000J0D01*
G01*
X118411000Y-68645000D01*
G75*
G02*
X118161000Y-68395000I0J250000D01*
G01*
X118161000Y-67495000D01*
G75*
G02*
X118411000Y-67245000I250000J0D01*
G01*
X119061000Y-67245000D01*
G75*
G02*
X119311000Y-67495000I0J-250000D01*
G01*
G37*
%TD*%
%TO.C,C1*%
G36*
G01*
X112573000Y-68395000D02*
X112573000Y-67495000D01*
G75*
G02*
X112823000Y-67245000I250000J0D01*
G01*
X113473000Y-67245000D01*
G75*
G02*
X113723000Y-67495000I0J-250000D01*
G01*
X113723000Y-68395000D01*
G75*
G02*
X113473000Y-68645000I-250000J0D01*
G01*
X112823000Y-68645000D01*
G75*
G02*
X112573000Y-68395000I0J250000D01*
G01*
G37*
G36*
G01*
X114623000Y-68395000D02*
X114623000Y-67495000D01*
G75*
G02*
X114873000Y-67245000I250000J0D01*
G01*
X115523000Y-67245000D01*
G75*
G02*
X115773000Y-67495000I0J-250000D01*
G01*
X115773000Y-68395000D01*
G75*
G02*
X115523000Y-68645000I-250000J0D01*
G01*
X114873000Y-68645000D01*
G75*
G02*
X114623000Y-68395000I0J250000D01*
G01*
G37*
%TD*%
%TO.C,R5*%
G36*
G01*
X118161000Y-76523000D02*
X118161000Y-75623000D01*
G75*
G02*
X118411000Y-75373000I250000J0D01*
G01*
X119061000Y-75373000D01*
G75*
G02*
X119311000Y-75623000I0J-250000D01*
G01*
X119311000Y-76523000D01*
G75*
G02*
X119061000Y-76773000I-250000J0D01*
G01*
X118411000Y-76773000D01*
G75*
G02*
X118161000Y-76523000I0J250000D01*
G01*
G37*
G36*
G01*
X120211000Y-76523000D02*
X120211000Y-75623000D01*
G75*
G02*
X120461000Y-75373000I250000J0D01*
G01*
X121111000Y-75373000D01*
G75*
G02*
X121361000Y-75623000I0J-250000D01*
G01*
X121361000Y-76523000D01*
G75*
G02*
X121111000Y-76773000I-250000J0D01*
G01*
X120461000Y-76773000D01*
G75*
G02*
X120211000Y-76523000I0J250000D01*
G01*
G37*
%TD*%
D10*
%TO.C,Q1*%
X113223000Y-74914000D03*
X115123000Y-74914000D03*
X114173000Y-72914000D03*
%TD*%
%TO.C,C2*%
G36*
G01*
X112573000Y-71189000D02*
X112573000Y-70289000D01*
G75*
G02*
X112823000Y-70039000I250000J0D01*
G01*
X113473000Y-70039000D01*
G75*
G02*
X113723000Y-70289000I0J-250000D01*
G01*
X113723000Y-71189000D01*
G75*
G02*
X113473000Y-71439000I-250000J0D01*
G01*
X112823000Y-71439000D01*
G75*
G02*
X112573000Y-71189000I0J250000D01*
G01*
G37*
G36*
G01*
X114623000Y-71189000D02*
X114623000Y-70289000D01*
G75*
G02*
X114873000Y-70039000I250000J0D01*
G01*
X115523000Y-70039000D01*
G75*
G02*
X115773000Y-70289000I0J-250000D01*
G01*
X115773000Y-71189000D01*
G75*
G02*
X115523000Y-71439000I-250000J0D01*
G01*
X114873000Y-71439000D01*
G75*
G02*
X114623000Y-71189000I0J250000D01*
G01*
G37*
%TD*%
%TO.C,R1*%
G36*
G01*
X107112000Y-68395000D02*
X107112000Y-67495000D01*
G75*
G02*
X107362000Y-67245000I250000J0D01*
G01*
X108012000Y-67245000D01*
G75*
G02*
X108262000Y-67495000I0J-250000D01*
G01*
X108262000Y-68395000D01*
G75*
G02*
X108012000Y-68645000I-250000J0D01*
G01*
X107362000Y-68645000D01*
G75*
G02*
X107112000Y-68395000I0J250000D01*
G01*
G37*
G36*
G01*
X109162000Y-68395000D02*
X109162000Y-67495000D01*
G75*
G02*
X109412000Y-67245000I250000J0D01*
G01*
X110062000Y-67245000D01*
G75*
G02*
X110312000Y-67495000I0J-250000D01*
G01*
X110312000Y-68395000D01*
G75*
G02*
X110062000Y-68645000I-250000J0D01*
G01*
X109412000Y-68645000D01*
G75*
G02*
X109162000Y-68395000I0J250000D01*
G01*
G37*
%TD*%
%TO.C,R6*%
G36*
G01*
X110312000Y-75623000D02*
X110312000Y-76523000D01*
G75*
G02*
X110062000Y-76773000I-250000J0D01*
G01*
X109412000Y-76773000D01*
G75*
G02*
X109162000Y-76523000I0J250000D01*
G01*
X109162000Y-75623000D01*
G75*
G02*
X109412000Y-75373000I250000J0D01*
G01*
X110062000Y-75373000D01*
G75*
G02*
X110312000Y-75623000I0J-250000D01*
G01*
G37*
G36*
G01*
X108262000Y-75623000D02*
X108262000Y-76523000D01*
G75*
G02*
X108012000Y-76773000I-250000J0D01*
G01*
X107362000Y-76773000D01*
G75*
G02*
X107112000Y-76523000I0J250000D01*
G01*
X107112000Y-75623000D01*
G75*
G02*
X107362000Y-75373000I250000J0D01*
G01*
X108012000Y-75373000D01*
G75*
G02*
X108262000Y-75623000I0J-250000D01*
G01*
G37*
%TD*%
M02*
