%TF.GenerationSoftware,KiCad,Pcbnew,6.0.0+dfsg1-2*%
%TF.CreationDate,2022-01-11T21:31:26+02:00*%
%TF.ProjectId,pimentero,70696d65-6e74-4657-926f-2e6b69636164,rev?*%
%TF.SameCoordinates,Original*%
%TF.FileFunction,Legend,Top*%
%TF.FilePolarity,Positive*%
%FSLAX46Y46*%
G04 Gerber Fmt 4.6, Leading zero omitted, Abs format (unit mm)*
G04 Created by KiCad (PCBNEW 6.0.0+dfsg1-2) date 2022-01-11 21:31:26*
%MOMM*%
%LPD*%
G01*
G04 APERTURE LIST*
G04 Aperture macros list*
%AMRoundRect*
0 Rectangle with rounded corners*
0 $1 Rounding radius*
0 $2 $3 $4 $5 $6 $7 $8 $9 X,Y pos of 4 corners*
0 Add a 4 corners polygon primitive as box body*
4,1,4,$2,$3,$4,$5,$6,$7,$8,$9,$2,$3,0*
0 Add four circle primitives for the rounded corners*
1,1,$1+$1,$2,$3*
1,1,$1+$1,$4,$5*
1,1,$1+$1,$6,$7*
1,1,$1+$1,$8,$9*
0 Add four rect primitives between the rounded corners*
20,1,$1+$1,$2,$3,$4,$5,0*
20,1,$1+$1,$4,$5,$6,$7,0*
20,1,$1+$1,$6,$7,$8,$9,0*
20,1,$1+$1,$8,$9,$2,$3,0*%
G04 Aperture macros list end*
%ADD10C,0.127000*%
%ADD11C,0.150000*%
%ADD12C,0.120000*%
%ADD13RoundRect,0.250000X-0.325000X-0.450000X0.325000X-0.450000X0.325000X0.450000X-0.325000X0.450000X0*%
%ADD14R,1.700000X1.700000*%
%ADD15R,0.800000X0.900000*%
%ADD16O,1.700000X1.700000*%
%ADD17RoundRect,0.250000X0.325000X0.450000X-0.325000X0.450000X-0.325000X-0.450000X0.325000X-0.450000X0*%
G04 APERTURE END LIST*
D10*
X106680000Y-68687904D02*
X106680000Y-67887904D01*
X106603809Y-75634904D02*
X106756190Y-75634904D01*
X106832380Y-75673000D01*
X106908571Y-75749190D01*
X106946666Y-75901571D01*
X106946666Y-76168238D01*
X106908571Y-76320619D01*
X106832380Y-76396809D01*
X106756190Y-76434904D01*
X106603809Y-76434904D01*
X106527619Y-76396809D01*
X106451428Y-76320619D01*
X106413333Y-76168238D01*
X106413333Y-75901571D01*
X106451428Y-75749190D01*
X106527619Y-75673000D01*
X106603809Y-75634904D01*
X106889523Y-73133000D02*
X106813333Y-73094904D01*
X106699047Y-73094904D01*
X106584761Y-73133000D01*
X106508571Y-73209190D01*
X106470476Y-73285380D01*
X106432380Y-73437761D01*
X106432380Y-73552047D01*
X106470476Y-73704428D01*
X106508571Y-73780619D01*
X106584761Y-73856809D01*
X106699047Y-73894904D01*
X106775238Y-73894904D01*
X106889523Y-73856809D01*
X106927619Y-73818714D01*
X106927619Y-73552047D01*
X106775238Y-73552047D01*
X106413333Y-70427904D02*
X106680000Y-71227904D01*
X106946666Y-70427904D01*
X109905952Y-75761904D02*
X110172619Y-76561904D01*
X110439285Y-75761904D01*
X110820238Y-76561904D02*
X110744047Y-76523809D01*
X110705952Y-76485714D01*
X110667857Y-76409523D01*
X110667857Y-76180952D01*
X110705952Y-76104761D01*
X110744047Y-76066666D01*
X110820238Y-76028571D01*
X110934523Y-76028571D01*
X111010714Y-76066666D01*
X111048809Y-76104761D01*
X111086904Y-76180952D01*
X111086904Y-76409523D01*
X111048809Y-76485714D01*
X111010714Y-76523809D01*
X110934523Y-76561904D01*
X110820238Y-76561904D01*
X111544047Y-76561904D02*
X111467857Y-76523809D01*
X111429761Y-76447619D01*
X111429761Y-75761904D01*
X112267857Y-76561904D02*
X111810714Y-76561904D01*
X112039285Y-76561904D02*
X112039285Y-75761904D01*
X111963095Y-75876190D01*
X111886904Y-75952380D01*
X111810714Y-75990476D01*
D11*
%TO.C,C4*%
X122388333Y-74398142D02*
X122340714Y-74445761D01*
X122197857Y-74493380D01*
X122102619Y-74493380D01*
X121959761Y-74445761D01*
X121864523Y-74350523D01*
X121816904Y-74255285D01*
X121769285Y-74064809D01*
X121769285Y-73921952D01*
X121816904Y-73731476D01*
X121864523Y-73636238D01*
X121959761Y-73541000D01*
X122102619Y-73493380D01*
X122197857Y-73493380D01*
X122340714Y-73541000D01*
X122388333Y-73588619D01*
X123245476Y-73826714D02*
X123245476Y-74493380D01*
X123007380Y-73445761D02*
X122769285Y-74160047D01*
X123388333Y-74160047D01*
%TO.C,R4*%
X111212333Y-70810380D02*
X110879000Y-70334190D01*
X110640904Y-70810380D02*
X110640904Y-69810380D01*
X111021857Y-69810380D01*
X111117095Y-69858000D01*
X111164714Y-69905619D01*
X111212333Y-70000857D01*
X111212333Y-70143714D01*
X111164714Y-70238952D01*
X111117095Y-70286571D01*
X111021857Y-70334190D01*
X110640904Y-70334190D01*
X112069476Y-70143714D02*
X112069476Y-70810380D01*
X111831380Y-69762761D02*
X111593285Y-70477047D01*
X112212333Y-70477047D01*
%TO.C,C3*%
X122388333Y-70207142D02*
X122340714Y-70254761D01*
X122197857Y-70302380D01*
X122102619Y-70302380D01*
X121959761Y-70254761D01*
X121864523Y-70159523D01*
X121816904Y-70064285D01*
X121769285Y-69873809D01*
X121769285Y-69730952D01*
X121816904Y-69540476D01*
X121864523Y-69445238D01*
X121959761Y-69350000D01*
X122102619Y-69302380D01*
X122197857Y-69302380D01*
X122340714Y-69350000D01*
X122388333Y-69397619D01*
X122721666Y-69302380D02*
X123340714Y-69302380D01*
X123007380Y-69683333D01*
X123150238Y-69683333D01*
X123245476Y-69730952D01*
X123293095Y-69778571D01*
X123340714Y-69873809D01*
X123340714Y-70111904D01*
X123293095Y-70207142D01*
X123245476Y-70254761D01*
X123150238Y-70302380D01*
X122864523Y-70302380D01*
X122769285Y-70254761D01*
X122721666Y-70207142D01*
%TO.C,R3*%
X122388333Y-72334380D02*
X122055000Y-71858190D01*
X121816904Y-72334380D02*
X121816904Y-71334380D01*
X122197857Y-71334380D01*
X122293095Y-71382000D01*
X122340714Y-71429619D01*
X122388333Y-71524857D01*
X122388333Y-71667714D01*
X122340714Y-71762952D01*
X122293095Y-71810571D01*
X122197857Y-71858190D01*
X121816904Y-71858190D01*
X122721666Y-71334380D02*
X123340714Y-71334380D01*
X123007380Y-71715333D01*
X123150238Y-71715333D01*
X123245476Y-71762952D01*
X123293095Y-71810571D01*
X123340714Y-71905809D01*
X123340714Y-72143904D01*
X123293095Y-72239142D01*
X123245476Y-72286761D01*
X123150238Y-72334380D01*
X122864523Y-72334380D01*
X122769285Y-72286761D01*
X122721666Y-72239142D01*
%TO.C,R2*%
X122388333Y-68016380D02*
X122055000Y-67540190D01*
X121816904Y-68016380D02*
X121816904Y-67016380D01*
X122197857Y-67016380D01*
X122293095Y-67064000D01*
X122340714Y-67111619D01*
X122388333Y-67206857D01*
X122388333Y-67349714D01*
X122340714Y-67444952D01*
X122293095Y-67492571D01*
X122197857Y-67540190D01*
X121816904Y-67540190D01*
X122769285Y-67111619D02*
X122816904Y-67064000D01*
X122912142Y-67016380D01*
X123150238Y-67016380D01*
X123245476Y-67064000D01*
X123293095Y-67111619D01*
X123340714Y-67206857D01*
X123340714Y-67302095D01*
X123293095Y-67444952D01*
X122721666Y-68016380D01*
X123340714Y-68016380D01*
%TO.C,C1*%
X116673333Y-67921142D02*
X116625714Y-67968761D01*
X116482857Y-68016380D01*
X116387619Y-68016380D01*
X116244761Y-67968761D01*
X116149523Y-67873523D01*
X116101904Y-67778285D01*
X116054285Y-67587809D01*
X116054285Y-67444952D01*
X116101904Y-67254476D01*
X116149523Y-67159238D01*
X116244761Y-67064000D01*
X116387619Y-67016380D01*
X116482857Y-67016380D01*
X116625714Y-67064000D01*
X116673333Y-67111619D01*
X117625714Y-68016380D02*
X117054285Y-68016380D01*
X117340000Y-68016380D02*
X117340000Y-67016380D01*
X117244761Y-67159238D01*
X117149523Y-67254476D01*
X117054285Y-67302095D01*
%TO.C,R5*%
X122388333Y-76652380D02*
X122055000Y-76176190D01*
X121816904Y-76652380D02*
X121816904Y-75652380D01*
X122197857Y-75652380D01*
X122293095Y-75700000D01*
X122340714Y-75747619D01*
X122388333Y-75842857D01*
X122388333Y-75985714D01*
X122340714Y-76080952D01*
X122293095Y-76128571D01*
X122197857Y-76176190D01*
X121816904Y-76176190D01*
X123293095Y-75652380D02*
X122816904Y-75652380D01*
X122769285Y-76128571D01*
X122816904Y-76080952D01*
X122912142Y-76033333D01*
X123150238Y-76033333D01*
X123245476Y-76080952D01*
X123293095Y-76128571D01*
X123340714Y-76223809D01*
X123340714Y-76461904D01*
X123293095Y-76557142D01*
X123245476Y-76604761D01*
X123150238Y-76652380D01*
X122912142Y-76652380D01*
X122816904Y-76604761D01*
X122769285Y-76557142D01*
%TO.C,Q1*%
X116871761Y-73953619D02*
X116776523Y-73906000D01*
X116681285Y-73810761D01*
X116538428Y-73667904D01*
X116443190Y-73620285D01*
X116347952Y-73620285D01*
X116395571Y-73858380D02*
X116300333Y-73810761D01*
X116205095Y-73715523D01*
X116157476Y-73525047D01*
X116157476Y-73191714D01*
X116205095Y-73001238D01*
X116300333Y-72906000D01*
X116395571Y-72858380D01*
X116586047Y-72858380D01*
X116681285Y-72906000D01*
X116776523Y-73001238D01*
X116824142Y-73191714D01*
X116824142Y-73525047D01*
X116776523Y-73715523D01*
X116681285Y-73810761D01*
X116586047Y-73858380D01*
X116395571Y-73858380D01*
X117776523Y-73858380D02*
X117205095Y-73858380D01*
X117490809Y-73858380D02*
X117490809Y-72858380D01*
X117395571Y-73001238D01*
X117300333Y-73096476D01*
X117205095Y-73144095D01*
%TO.C,C2*%
X116673333Y-70715142D02*
X116625714Y-70762761D01*
X116482857Y-70810380D01*
X116387619Y-70810380D01*
X116244761Y-70762761D01*
X116149523Y-70667523D01*
X116101904Y-70572285D01*
X116054285Y-70381809D01*
X116054285Y-70238952D01*
X116101904Y-70048476D01*
X116149523Y-69953238D01*
X116244761Y-69858000D01*
X116387619Y-69810380D01*
X116482857Y-69810380D01*
X116625714Y-69858000D01*
X116673333Y-69905619D01*
X117054285Y-69905619D02*
X117101904Y-69858000D01*
X117197142Y-69810380D01*
X117435238Y-69810380D01*
X117530476Y-69858000D01*
X117578095Y-69905619D01*
X117625714Y-70000857D01*
X117625714Y-70096095D01*
X117578095Y-70238952D01*
X117006666Y-70810380D01*
X117625714Y-70810380D01*
%TO.C,R1*%
X111212333Y-68016380D02*
X110879000Y-67540190D01*
X110640904Y-68016380D02*
X110640904Y-67016380D01*
X111021857Y-67016380D01*
X111117095Y-67064000D01*
X111164714Y-67111619D01*
X111212333Y-67206857D01*
X111212333Y-67349714D01*
X111164714Y-67444952D01*
X111117095Y-67492571D01*
X111021857Y-67540190D01*
X110640904Y-67540190D01*
X112164714Y-68016380D02*
X111593285Y-68016380D01*
X111879000Y-68016380D02*
X111879000Y-67016380D01*
X111783761Y-67159238D01*
X111688523Y-67254476D01*
X111593285Y-67302095D01*
%TO.C,R6*%
X111212333Y-73477380D02*
X110879000Y-73001190D01*
X110640904Y-73477380D02*
X110640904Y-72477380D01*
X111021857Y-72477380D01*
X111117095Y-72525000D01*
X111164714Y-72572619D01*
X111212333Y-72667857D01*
X111212333Y-72810714D01*
X111164714Y-72905952D01*
X111117095Y-72953571D01*
X111021857Y-73001190D01*
X110640904Y-73001190D01*
X112069476Y-72477380D02*
X111879000Y-72477380D01*
X111783761Y-72525000D01*
X111736142Y-72572619D01*
X111640904Y-72715476D01*
X111593285Y-72905952D01*
X111593285Y-73286904D01*
X111640904Y-73382142D01*
X111688523Y-73429761D01*
X111783761Y-73477380D01*
X111974238Y-73477380D01*
X112069476Y-73429761D01*
X112117095Y-73382142D01*
X112164714Y-73286904D01*
X112164714Y-73048809D01*
X112117095Y-72953571D01*
X112069476Y-72905952D01*
X111974238Y-72858333D01*
X111783761Y-72858333D01*
X111688523Y-72905952D01*
X111640904Y-72953571D01*
X111593285Y-73048809D01*
D12*
%TO.C,C4*%
X119499748Y-73331000D02*
X120022252Y-73331000D01*
X119499748Y-74751000D02*
X120022252Y-74751000D01*
%TO.C,J2*%
X107509000Y-77276000D02*
X110169000Y-77276000D01*
X107509000Y-77216000D02*
X110169000Y-77216000D01*
X107509000Y-75946000D02*
X107509000Y-74616000D01*
X107509000Y-74616000D02*
X108839000Y-74616000D01*
X110169000Y-77216000D02*
X110169000Y-77276000D01*
X107509000Y-77216000D02*
X107509000Y-77276000D01*
%TO.C,R4*%
X108450748Y-71068000D02*
X108973252Y-71068000D01*
X108450748Y-69648000D02*
X108973252Y-69648000D01*
%TO.C,C3*%
X119499748Y-69013000D02*
X120022252Y-69013000D01*
X119499748Y-70433000D02*
X120022252Y-70433000D01*
%TO.C,R3*%
X119499748Y-72592000D02*
X120022252Y-72592000D01*
X119499748Y-71172000D02*
X120022252Y-71172000D01*
%TO.C,R2*%
X119499748Y-68274000D02*
X120022252Y-68274000D01*
X119499748Y-66854000D02*
X120022252Y-66854000D01*
%TO.C,C1*%
X113911748Y-68274000D02*
X114434252Y-68274000D01*
X113911748Y-66854000D02*
X114434252Y-66854000D01*
%TO.C,R5*%
X119499748Y-76910000D02*
X120022252Y-76910000D01*
X119499748Y-75490000D02*
X120022252Y-75490000D01*
%TO.C,Q1*%
X115753000Y-72519000D02*
X115753000Y-73979000D01*
X115753000Y-72519000D02*
X114823000Y-72519000D01*
X112593000Y-72519000D02*
X113523000Y-72519000D01*
X112593000Y-72519000D02*
X112593000Y-74679000D01*
%TO.C,C2*%
X113911748Y-71068000D02*
X114434252Y-71068000D01*
X113911748Y-69648000D02*
X114434252Y-69648000D01*
%TO.C,R1*%
X108450748Y-68274000D02*
X108973252Y-68274000D01*
X108450748Y-66854000D02*
X108973252Y-66854000D01*
%TO.C,J1*%
X103572000Y-69596000D02*
X103572000Y-77276000D01*
X103572000Y-77276000D02*
X106232000Y-77276000D01*
X103572000Y-68326000D02*
X103572000Y-66996000D01*
X106232000Y-69596000D02*
X106232000Y-77276000D01*
X103572000Y-69596000D02*
X106232000Y-69596000D01*
X103572000Y-66996000D02*
X104902000Y-66996000D01*
%TO.C,R6*%
X108973252Y-73735000D02*
X108450748Y-73735000D01*
X108973252Y-72315000D02*
X108450748Y-72315000D01*
%TD*%
%LPC*%
D13*
%TO.C,C4*%
X118736000Y-74041000D03*
X120786000Y-74041000D03*
%TD*%
D14*
%TO.C,J2*%
X108839000Y-75946000D03*
%TD*%
D13*
%TO.C,R4*%
X107687000Y-70358000D03*
X109737000Y-70358000D03*
%TD*%
%TO.C,C3*%
X118736000Y-69723000D03*
X120786000Y-69723000D03*
%TD*%
%TO.C,R3*%
X118736000Y-71882000D03*
X120786000Y-71882000D03*
%TD*%
%TO.C,R2*%
X118736000Y-67564000D03*
X120786000Y-67564000D03*
%TD*%
%TO.C,C1*%
X113148000Y-67564000D03*
X115198000Y-67564000D03*
%TD*%
%TO.C,R5*%
X118736000Y-76200000D03*
X120786000Y-76200000D03*
%TD*%
D15*
%TO.C,Q1*%
X113223000Y-74279000D03*
X115123000Y-74279000D03*
X114173000Y-72279000D03*
%TD*%
D13*
%TO.C,C2*%
X113148000Y-70358000D03*
X115198000Y-70358000D03*
%TD*%
%TO.C,R1*%
X107687000Y-67564000D03*
X109737000Y-67564000D03*
%TD*%
D14*
%TO.C,J1*%
X104902000Y-68326000D03*
D16*
X104902000Y-70866000D03*
X104902000Y-73406000D03*
X104902000Y-75946000D03*
%TD*%
D17*
%TO.C,R6*%
X109737000Y-73025000D03*
X107687000Y-73025000D03*
%TD*%
M02*
