%TF.GenerationSoftware,KiCad,Pcbnew,(5.99.0-2965-g3673c2369)*%
%TF.CreationDate,2020-08-26T09:47:43+03:00*%
%TF.ProjectId,pimentero,70696d65-6e74-4657-926f-2e6b69636164,rev?*%
%TF.SameCoordinates,Original*%
%TF.FileFunction,Copper,L1,Top*%
%TF.FilePolarity,Positive*%
%FSLAX46Y46*%
G04 Gerber Fmt 4.6, Leading zero omitted, Abs format (unit mm)*
G04 Created by KiCad (PCBNEW (5.99.0-2965-g3673c2369)) date 2020-08-26 09:47:43*
%MOMM*%
%LPD*%
G01*
G04 APERTURE LIST*
%TA.AperFunction,SMDPad,CuDef*%
%ADD10R,0.800000X0.900000*%
%TD*%
%TA.AperFunction,ComponentPad*%
%ADD11R,1.700000X1.700000*%
%TD*%
%TA.AperFunction,ComponentPad*%
%ADD12O,1.700000X1.700000*%
%TD*%
%TA.AperFunction,ViaPad*%
%ADD13C,0.800000*%
%TD*%
%TA.AperFunction,Conductor*%
%ADD14C,0.508000*%
%TD*%
G04 APERTURE END LIST*
%TO.P,C4,1*%
%TO.N,Net-(C4-Pad1)*%
%TA.AperFunction,SMDPad,CuDef*%
G36*
G01*
X118161000Y-71189000D02*
X118161000Y-70289000D01*
G75*
G02*
X118411000Y-70039000I250000J0D01*
G01*
X119061000Y-70039000D01*
G75*
G02*
X119311000Y-70289000I0J-250000D01*
G01*
X119311000Y-71189000D01*
G75*
G02*
X119061000Y-71439000I-250000J0D01*
G01*
X118411000Y-71439000D01*
G75*
G02*
X118161000Y-71189000I0J250000D01*
G01*
G37*
%TD.AperFunction*%
%TO.P,C4,2*%
%TO.N,Net-(C4-Pad2)*%
%TA.AperFunction,SMDPad,CuDef*%
G36*
G01*
X120211000Y-71189000D02*
X120211000Y-70289000D01*
G75*
G02*
X120461000Y-70039000I250000J0D01*
G01*
X121111000Y-70039000D01*
G75*
G02*
X121361000Y-70289000I0J-250000D01*
G01*
X121361000Y-71189000D01*
G75*
G02*
X121111000Y-71439000I-250000J0D01*
G01*
X120461000Y-71439000D01*
G75*
G02*
X120211000Y-71189000I0J250000D01*
G01*
G37*
%TD.AperFunction*%
%TD*%
%TO.P,R4,1*%
%TO.N,VCC*%
%TA.AperFunction,SMDPad,CuDef*%
G36*
G01*
X107112000Y-71189000D02*
X107112000Y-70289000D01*
G75*
G02*
X107362000Y-70039000I250000J0D01*
G01*
X108012000Y-70039000D01*
G75*
G02*
X108262000Y-70289000I0J-250000D01*
G01*
X108262000Y-71189000D01*
G75*
G02*
X108012000Y-71439000I-250000J0D01*
G01*
X107362000Y-71439000D01*
G75*
G02*
X107112000Y-71189000I0J250000D01*
G01*
G37*
%TD.AperFunction*%
%TO.P,R4,2*%
%TO.N,Net-(C4-Pad1)*%
%TA.AperFunction,SMDPad,CuDef*%
G36*
G01*
X109162000Y-71189000D02*
X109162000Y-70289000D01*
G75*
G02*
X109412000Y-70039000I250000J0D01*
G01*
X110062000Y-70039000D01*
G75*
G02*
X110312000Y-70289000I0J-250000D01*
G01*
X110312000Y-71189000D01*
G75*
G02*
X110062000Y-71439000I-250000J0D01*
G01*
X109412000Y-71439000D01*
G75*
G02*
X109162000Y-71189000I0J250000D01*
G01*
G37*
%TD.AperFunction*%
%TD*%
%TO.P,C3,1*%
%TO.N,Net-(C3-Pad1)*%
%TA.AperFunction,SMDPad,CuDef*%
G36*
G01*
X118161000Y-73856000D02*
X118161000Y-72956000D01*
G75*
G02*
X118411000Y-72706000I250000J0D01*
G01*
X119061000Y-72706000D01*
G75*
G02*
X119311000Y-72956000I0J-250000D01*
G01*
X119311000Y-73856000D01*
G75*
G02*
X119061000Y-74106000I-250000J0D01*
G01*
X118411000Y-74106000D01*
G75*
G02*
X118161000Y-73856000I0J250000D01*
G01*
G37*
%TD.AperFunction*%
%TO.P,C3,2*%
%TO.N,GND*%
%TA.AperFunction,SMDPad,CuDef*%
G36*
G01*
X120211000Y-73856000D02*
X120211000Y-72956000D01*
G75*
G02*
X120461000Y-72706000I250000J0D01*
G01*
X121111000Y-72706000D01*
G75*
G02*
X121361000Y-72956000I0J-250000D01*
G01*
X121361000Y-73856000D01*
G75*
G02*
X121111000Y-74106000I-250000J0D01*
G01*
X120461000Y-74106000D01*
G75*
G02*
X120211000Y-73856000I0J250000D01*
G01*
G37*
%TD.AperFunction*%
%TD*%
%TO.P,R3,1*%
%TO.N,Net-(C3-Pad1)*%
%TA.AperFunction,SMDPad,CuDef*%
G36*
G01*
X110312000Y-72956000D02*
X110312000Y-73856000D01*
G75*
G02*
X110062000Y-74106000I-250000J0D01*
G01*
X109412000Y-74106000D01*
G75*
G02*
X109162000Y-73856000I0J250000D01*
G01*
X109162000Y-72956000D01*
G75*
G02*
X109412000Y-72706000I250000J0D01*
G01*
X110062000Y-72706000D01*
G75*
G02*
X110312000Y-72956000I0J-250000D01*
G01*
G37*
%TD.AperFunction*%
%TO.P,R3,2*%
%TO.N,GND*%
%TA.AperFunction,SMDPad,CuDef*%
G36*
G01*
X108262000Y-72956000D02*
X108262000Y-73856000D01*
G75*
G02*
X108012000Y-74106000I-250000J0D01*
G01*
X107362000Y-74106000D01*
G75*
G02*
X107112000Y-73856000I0J250000D01*
G01*
X107112000Y-72956000D01*
G75*
G02*
X107362000Y-72706000I250000J0D01*
G01*
X108012000Y-72706000D01*
G75*
G02*
X108262000Y-72956000I0J-250000D01*
G01*
G37*
%TD.AperFunction*%
%TD*%
%TO.P,R2,1*%
%TO.N,Net-(C2-Pad2)*%
%TA.AperFunction,SMDPad,CuDef*%
G36*
G01*
X121361000Y-67495000D02*
X121361000Y-68395000D01*
G75*
G02*
X121111000Y-68645000I-250000J0D01*
G01*
X120461000Y-68645000D01*
G75*
G02*
X120211000Y-68395000I0J250000D01*
G01*
X120211000Y-67495000D01*
G75*
G02*
X120461000Y-67245000I250000J0D01*
G01*
X121111000Y-67245000D01*
G75*
G02*
X121361000Y-67495000I0J-250000D01*
G01*
G37*
%TD.AperFunction*%
%TO.P,R2,2*%
%TO.N,GND*%
%TA.AperFunction,SMDPad,CuDef*%
G36*
G01*
X119311000Y-67495000D02*
X119311000Y-68395000D01*
G75*
G02*
X119061000Y-68645000I-250000J0D01*
G01*
X118411000Y-68645000D01*
G75*
G02*
X118161000Y-68395000I0J250000D01*
G01*
X118161000Y-67495000D01*
G75*
G02*
X118411000Y-67245000I250000J0D01*
G01*
X119061000Y-67245000D01*
G75*
G02*
X119311000Y-67495000I0J-250000D01*
G01*
G37*
%TD.AperFunction*%
%TD*%
%TO.P,C1,1*%
%TO.N,Net-(C1-Pad1)*%
%TA.AperFunction,SMDPad,CuDef*%
G36*
G01*
X112573000Y-68395000D02*
X112573000Y-67495000D01*
G75*
G02*
X112823000Y-67245000I250000J0D01*
G01*
X113473000Y-67245000D01*
G75*
G02*
X113723000Y-67495000I0J-250000D01*
G01*
X113723000Y-68395000D01*
G75*
G02*
X113473000Y-68645000I-250000J0D01*
G01*
X112823000Y-68645000D01*
G75*
G02*
X112573000Y-68395000I0J250000D01*
G01*
G37*
%TD.AperFunction*%
%TO.P,C1,2*%
%TO.N,GND*%
%TA.AperFunction,SMDPad,CuDef*%
G36*
G01*
X114623000Y-68395000D02*
X114623000Y-67495000D01*
G75*
G02*
X114873000Y-67245000I250000J0D01*
G01*
X115523000Y-67245000D01*
G75*
G02*
X115773000Y-67495000I0J-250000D01*
G01*
X115773000Y-68395000D01*
G75*
G02*
X115523000Y-68645000I-250000J0D01*
G01*
X114873000Y-68645000D01*
G75*
G02*
X114623000Y-68395000I0J250000D01*
G01*
G37*
%TD.AperFunction*%
%TD*%
%TO.P,R5,1*%
%TO.N,Net-(C4-Pad2)*%
%TA.AperFunction,SMDPad,CuDef*%
G36*
G01*
X118161000Y-76523000D02*
X118161000Y-75623000D01*
G75*
G02*
X118411000Y-75373000I250000J0D01*
G01*
X119061000Y-75373000D01*
G75*
G02*
X119311000Y-75623000I0J-250000D01*
G01*
X119311000Y-76523000D01*
G75*
G02*
X119061000Y-76773000I-250000J0D01*
G01*
X118411000Y-76773000D01*
G75*
G02*
X118161000Y-76523000I0J250000D01*
G01*
G37*
%TD.AperFunction*%
%TO.P,R5,2*%
%TO.N,GND*%
%TA.AperFunction,SMDPad,CuDef*%
G36*
G01*
X120211000Y-76523000D02*
X120211000Y-75623000D01*
G75*
G02*
X120461000Y-75373000I250000J0D01*
G01*
X121111000Y-75373000D01*
G75*
G02*
X121361000Y-75623000I0J-250000D01*
G01*
X121361000Y-76523000D01*
G75*
G02*
X121111000Y-76773000I-250000J0D01*
G01*
X120461000Y-76773000D01*
G75*
G02*
X120211000Y-76523000I0J250000D01*
G01*
G37*
%TD.AperFunction*%
%TD*%
D10*
%TO.P,Q1,1,D*%
%TO.N,Net-(C4-Pad1)*%
X113223000Y-74914000D03*
%TO.P,Q1,2,S*%
%TO.N,Net-(C3-Pad1)*%
X115123000Y-74914000D03*
%TO.P,Q1,3,G*%
%TO.N,Net-(C2-Pad2)*%
X114173000Y-72914000D03*
%TD*%
%TO.P,C2,1*%
%TO.N,Net-(C1-Pad1)*%
%TA.AperFunction,SMDPad,CuDef*%
G36*
G01*
X112573000Y-71189000D02*
X112573000Y-70289000D01*
G75*
G02*
X112823000Y-70039000I250000J0D01*
G01*
X113473000Y-70039000D01*
G75*
G02*
X113723000Y-70289000I0J-250000D01*
G01*
X113723000Y-71189000D01*
G75*
G02*
X113473000Y-71439000I-250000J0D01*
G01*
X112823000Y-71439000D01*
G75*
G02*
X112573000Y-71189000I0J250000D01*
G01*
G37*
%TD.AperFunction*%
%TO.P,C2,2*%
%TO.N,Net-(C2-Pad2)*%
%TA.AperFunction,SMDPad,CuDef*%
G36*
G01*
X114623000Y-71189000D02*
X114623000Y-70289000D01*
G75*
G02*
X114873000Y-70039000I250000J0D01*
G01*
X115523000Y-70039000D01*
G75*
G02*
X115773000Y-70289000I0J-250000D01*
G01*
X115773000Y-71189000D01*
G75*
G02*
X115523000Y-71439000I-250000J0D01*
G01*
X114873000Y-71439000D01*
G75*
G02*
X114623000Y-71189000I0J250000D01*
G01*
G37*
%TD.AperFunction*%
%TD*%
%TO.P,R1,1*%
%TO.N,IN*%
%TA.AperFunction,SMDPad,CuDef*%
G36*
G01*
X107112000Y-68395000D02*
X107112000Y-67495000D01*
G75*
G02*
X107362000Y-67245000I250000J0D01*
G01*
X108012000Y-67245000D01*
G75*
G02*
X108262000Y-67495000I0J-250000D01*
G01*
X108262000Y-68395000D01*
G75*
G02*
X108012000Y-68645000I-250000J0D01*
G01*
X107362000Y-68645000D01*
G75*
G02*
X107112000Y-68395000I0J250000D01*
G01*
G37*
%TD.AperFunction*%
%TO.P,R1,2*%
%TO.N,Net-(C1-Pad1)*%
%TA.AperFunction,SMDPad,CuDef*%
G36*
G01*
X109162000Y-68395000D02*
X109162000Y-67495000D01*
G75*
G02*
X109412000Y-67245000I250000J0D01*
G01*
X110062000Y-67245000D01*
G75*
G02*
X110312000Y-67495000I0J-250000D01*
G01*
X110312000Y-68395000D01*
G75*
G02*
X110062000Y-68645000I-250000J0D01*
G01*
X109412000Y-68645000D01*
G75*
G02*
X109162000Y-68395000I0J250000D01*
G01*
G37*
%TD.AperFunction*%
%TD*%
D11*
%TO.P,J1,1,Pin_1*%
%TO.N,IN*%
X104902000Y-68326000D03*
D12*
%TO.P,J1,2,Pin_2*%
%TO.N,VCC*%
X104902000Y-70866000D03*
%TO.P,J1,3,Pin_3*%
%TO.N,GND*%
X104902000Y-73406000D03*
%TO.P,J1,4,Pin_4*%
%TO.N,OUT*%
X104902000Y-75946000D03*
%TD*%
%TO.P,R6,1*%
%TO.N,Net-(C4-Pad2)*%
%TA.AperFunction,SMDPad,CuDef*%
G36*
G01*
X110312000Y-75623000D02*
X110312000Y-76523000D01*
G75*
G02*
X110062000Y-76773000I-250000J0D01*
G01*
X109412000Y-76773000D01*
G75*
G02*
X109162000Y-76523000I0J250000D01*
G01*
X109162000Y-75623000D01*
G75*
G02*
X109412000Y-75373000I250000J0D01*
G01*
X110062000Y-75373000D01*
G75*
G02*
X110312000Y-75623000I0J-250000D01*
G01*
G37*
%TD.AperFunction*%
%TO.P,R6,2*%
%TO.N,OUT*%
%TA.AperFunction,SMDPad,CuDef*%
G36*
G01*
X108262000Y-75623000D02*
X108262000Y-76523000D01*
G75*
G02*
X108012000Y-76773000I-250000J0D01*
G01*
X107362000Y-76773000D01*
G75*
G02*
X107112000Y-76523000I0J250000D01*
G01*
X107112000Y-75623000D01*
G75*
G02*
X107362000Y-75373000I250000J0D01*
G01*
X108012000Y-75373000D01*
G75*
G02*
X108262000Y-75623000I0J-250000D01*
G01*
G37*
%TD.AperFunction*%
%TD*%
D13*
%TO.N,GND*%
X116840000Y-68834000D03*
X121920000Y-72136000D03*
X122809000Y-74930000D03*
X111379000Y-69342000D03*
X122428000Y-69342000D03*
%TD*%
D14*
%TO.N,GND*%
X120786000Y-73270000D02*
X121920000Y-72136000D01*
X120786000Y-73406000D02*
X120786000Y-73270000D01*
%TO.N,Net-(C1-Pad1)*%
X113148000Y-67945000D02*
X113148000Y-70739000D01*
X109737000Y-67945000D02*
X113148000Y-67945000D01*
%TO.N,Net-(C2-Pad2)*%
X114173000Y-71764000D02*
X115198000Y-70739000D01*
X116961184Y-70739000D02*
X118601174Y-69099010D01*
X115198000Y-70739000D02*
X116961184Y-70739000D01*
X114173000Y-72914000D02*
X114173000Y-71764000D01*
X118601174Y-69099010D02*
X119631990Y-69099010D01*
X119631990Y-69099010D02*
X120786000Y-67945000D01*
%TO.N,Net-(C3-Pad1)*%
X109737000Y-73406000D02*
X112149001Y-75818001D01*
X114218999Y-75818001D02*
X115123000Y-74914000D01*
X117228000Y-74914000D02*
X118736000Y-73406000D01*
X115123000Y-74914000D02*
X117228000Y-74914000D01*
X112149001Y-75818001D02*
X114218999Y-75818001D01*
%TO.N,Net-(C4-Pad2)*%
X119890010Y-74918990D02*
X121047826Y-74918990D01*
X121047826Y-74918990D02*
X122774001Y-73192815D01*
X122774001Y-73192815D02*
X122774001Y-71726079D01*
X109737000Y-76073000D02*
X110190011Y-76526011D01*
X118736000Y-76073000D02*
X119890010Y-74918990D01*
X118282989Y-76526011D02*
X118736000Y-76073000D01*
X121786922Y-70739000D02*
X120786000Y-70739000D01*
X122774001Y-71726079D02*
X121786922Y-70739000D01*
X110190011Y-76526011D02*
X118282989Y-76526011D01*
%TO.N,Net-(C4-Pad1)*%
X109737000Y-70739000D02*
X109737000Y-71428000D01*
X113223000Y-74864000D02*
X114268999Y-73818001D01*
X118237000Y-70739000D02*
X118736000Y-70739000D01*
X117729000Y-70993000D02*
X117983000Y-70993000D01*
X114268999Y-73818001D02*
X114903999Y-73818001D01*
X114903999Y-73818001D02*
X117729000Y-70993000D01*
X117983000Y-70993000D02*
X118237000Y-70739000D01*
X109737000Y-71428000D02*
X113223000Y-74914000D01*
X113223000Y-74914000D02*
X113223000Y-74864000D01*
%TO.N,IN*%
X104902000Y-68326000D02*
X107306000Y-68326000D01*
X107306000Y-68326000D02*
X107687000Y-67945000D01*
%TO.N,VCC*%
X104902000Y-70866000D02*
X107560000Y-70866000D01*
X107560000Y-70866000D02*
X107687000Y-70739000D01*
%TO.N,OUT*%
X104902000Y-75946000D02*
X107560000Y-75946000D01*
X107560000Y-75946000D02*
X107687000Y-76073000D01*
%TD*%
%TA.AperFunction,Conductor*%
%TO.N,GND*%
G36*
X123229809Y-73918805D02*
G01*
X123286644Y-73961352D01*
X123311776Y-74036861D01*
X123311776Y-77084776D01*
X123291774Y-77152897D01*
X123238118Y-77199390D01*
X123185776Y-77210776D01*
X121799432Y-77210776D01*
X121731311Y-77190774D01*
X121684818Y-77137118D01*
X121674714Y-77066844D01*
X121704208Y-77002263D01*
X121759281Y-76938707D01*
X121850759Y-76738397D01*
X121850758Y-76738397D01*
X121874224Y-76575190D01*
X121874224Y-76327000D01*
X120658000Y-76327000D01*
X120589879Y-76306998D01*
X120543386Y-76253342D01*
X120532000Y-76201000D01*
X120532000Y-75945000D01*
X120552002Y-75876879D01*
X120605658Y-75830386D01*
X120658000Y-75819000D01*
X121874224Y-75819000D01*
X121874224Y-75589376D01*
X121874223Y-75589370D01*
X121813959Y-75312340D01*
X121819023Y-75241525D01*
X121847984Y-75196462D01*
X123096681Y-73947766D01*
X123158993Y-73913740D01*
X123229809Y-73918805D01*
G37*
%TD.AperFunction*%
%TA.AperFunction,Conductor*%
G36*
X106737370Y-71648002D02*
G01*
X106775247Y-71685879D01*
X106779871Y-71693074D01*
X106946293Y-71837280D01*
X106946293Y-71837281D01*
X107146603Y-71928759D01*
X107295491Y-71950165D01*
X107360072Y-71979658D01*
X107398456Y-72039384D01*
X107398456Y-72110381D01*
X107360073Y-72170107D01*
X107304343Y-72198004D01*
X107043177Y-72254817D01*
X106857926Y-72373871D01*
X106713719Y-72540293D01*
X106622242Y-72740603D01*
X106598776Y-72903810D01*
X106598776Y-73152000D01*
X107815000Y-73152001D01*
X107883121Y-73172003D01*
X107929614Y-73225659D01*
X107941000Y-73278001D01*
X107940999Y-73534000D01*
X107920997Y-73602121D01*
X107867341Y-73648614D01*
X107814999Y-73660000D01*
X106598776Y-73659999D01*
X106598776Y-73889623D01*
X106660817Y-74174823D01*
X106779871Y-74360074D01*
X106946293Y-74504280D01*
X106946293Y-74504281D01*
X107146603Y-74595759D01*
X107295491Y-74617165D01*
X107360072Y-74646658D01*
X107398456Y-74706384D01*
X107398456Y-74777381D01*
X107360073Y-74837107D01*
X107304343Y-74865004D01*
X107043177Y-74921817D01*
X106857926Y-75040871D01*
X106771585Y-75140513D01*
X106676361Y-75184000D01*
X106092247Y-75184000D01*
X106024126Y-75163998D01*
X105994050Y-75136952D01*
X105888156Y-75005246D01*
X105715553Y-74852541D01*
X105715552Y-74852540D01*
X105603491Y-74783059D01*
X105556136Y-74730163D01*
X105544897Y-74660062D01*
X105573341Y-74595012D01*
X105605559Y-74567632D01*
X105694410Y-74514876D01*
X105869914Y-74365513D01*
X106017746Y-74188707D01*
X106133674Y-73989524D01*
X106214384Y-73773655D01*
X106236065Y-73660000D01*
X104774000Y-73660000D01*
X104705879Y-73639998D01*
X104659386Y-73586342D01*
X104648000Y-73534000D01*
X104648000Y-73278000D01*
X104668002Y-73209879D01*
X104721658Y-73163386D01*
X104774000Y-73152000D01*
X106236309Y-73152000D01*
X106221200Y-73063611D01*
X106221198Y-73063601D01*
X106144652Y-72846237D01*
X106144646Y-72846222D01*
X106032573Y-72644866D01*
X106032567Y-72644859D01*
X105888156Y-72465246D01*
X105715553Y-72312541D01*
X105715552Y-72312540D01*
X105603491Y-72243059D01*
X105556136Y-72190163D01*
X105544897Y-72120062D01*
X105573341Y-72055012D01*
X105605559Y-72027632D01*
X105694410Y-71974876D01*
X105869914Y-71825513D01*
X105997286Y-71673177D01*
X106056327Y-71633748D01*
X106093949Y-71628000D01*
X106669249Y-71628000D01*
X106737370Y-71648002D01*
G37*
%TD.AperFunction*%
%TA.AperFunction,Conductor*%
G36*
X112116752Y-68727002D02*
G01*
X112154629Y-68764879D01*
X112240871Y-68899074D01*
X112342513Y-68987148D01*
X112386000Y-69082372D01*
X112386001Y-69594964D01*
X112365999Y-69663085D01*
X112328120Y-69700963D01*
X112318925Y-69706872D01*
X112174719Y-69873293D01*
X112083242Y-70073603D01*
X112059776Y-70236810D01*
X112059776Y-71222623D01*
X112121817Y-71507823D01*
X112240871Y-71693074D01*
X112407293Y-71837280D01*
X112407293Y-71837281D01*
X112607603Y-71928758D01*
X112770810Y-71952224D01*
X113263648Y-71952224D01*
X113331769Y-71972226D01*
X113378262Y-72025882D01*
X113388366Y-72096156D01*
X113372767Y-72141224D01*
X113288271Y-72287574D01*
X113257163Y-72464001D01*
X113257163Y-73363998D01*
X113320373Y-73599902D01*
X113318683Y-73670878D01*
X113287761Y-73721608D01*
X113287095Y-73722274D01*
X113224783Y-73756300D01*
X113153968Y-73751235D01*
X113108905Y-73722274D01*
X110845008Y-71458378D01*
X110810983Y-71396066D01*
X110809386Y-71351351D01*
X110825224Y-71241200D01*
X110825224Y-70255377D01*
X110763183Y-69970177D01*
X110644129Y-69784926D01*
X110477707Y-69640720D01*
X110477707Y-69640719D01*
X110277397Y-69549242D01*
X110114190Y-69525776D01*
X109378377Y-69525776D01*
X109093177Y-69587817D01*
X108907926Y-69706871D01*
X108809177Y-69820832D01*
X108749451Y-69859215D01*
X108678454Y-69859215D01*
X108607955Y-69806439D01*
X108594131Y-69784928D01*
X108594130Y-69784927D01*
X108427707Y-69640720D01*
X108427707Y-69640719D01*
X108227397Y-69549242D01*
X108064190Y-69525776D01*
X107328377Y-69525776D01*
X107043177Y-69587817D01*
X106857926Y-69706871D01*
X106713719Y-69873293D01*
X106641998Y-70030342D01*
X106595505Y-70083998D01*
X106527384Y-70104000D01*
X106092247Y-70104000D01*
X106024126Y-70083998D01*
X105994050Y-70056952D01*
X105888156Y-69925246D01*
X105829640Y-69873476D01*
X105791874Y-69813357D01*
X105792606Y-69742364D01*
X105831604Y-69683037D01*
X105880519Y-69657400D01*
X106009920Y-69622727D01*
X106147154Y-69507574D01*
X106236729Y-69352426D01*
X106236728Y-69352426D01*
X106264994Y-69192121D01*
X106296521Y-69128508D01*
X106389080Y-69088000D01*
X107016805Y-69088000D01*
X107069147Y-69099386D01*
X107146603Y-69134758D01*
X107309810Y-69158224D01*
X108045623Y-69158224D01*
X108330823Y-69096183D01*
X108516074Y-68977129D01*
X108614823Y-68863168D01*
X108674549Y-68824785D01*
X108745546Y-68824785D01*
X108816045Y-68877561D01*
X108829869Y-68899072D01*
X108829870Y-68899073D01*
X108996293Y-69043280D01*
X108996293Y-69043281D01*
X109196603Y-69134758D01*
X109359810Y-69158224D01*
X110095623Y-69158224D01*
X110380823Y-69096183D01*
X110566074Y-68977129D01*
X110710280Y-68810707D01*
X110710282Y-68810704D01*
X110724003Y-68780659D01*
X110770495Y-68727003D01*
X110838617Y-68707000D01*
X112048631Y-68707000D01*
X112116752Y-68727002D01*
G37*
%TD.AperFunction*%
%TA.AperFunction,Conductor*%
G36*
X121763787Y-71793496D02*
G01*
X121975097Y-72004806D01*
X122012002Y-72093901D01*
X122012001Y-72518984D01*
X121991999Y-72587105D01*
X121938343Y-72633598D01*
X121868069Y-72643701D01*
X121780003Y-72587105D01*
X121693129Y-72451926D01*
X121526707Y-72307720D01*
X121526707Y-72307719D01*
X121326397Y-72216241D01*
X121177509Y-72194835D01*
X121112928Y-72165342D01*
X121074544Y-72105616D01*
X121074544Y-72034619D01*
X121112927Y-71974893D01*
X121168657Y-71946996D01*
X121429823Y-71890183D01*
X121606571Y-71776593D01*
X121674692Y-71756591D01*
X121763787Y-71793496D01*
G37*
%TD.AperFunction*%
%TA.AperFunction,Conductor*%
G36*
X123253897Y-66954226D02*
G01*
X123300390Y-67007882D01*
X123311776Y-67060224D01*
X123311776Y-70882034D01*
X123291774Y-70950155D01*
X123238118Y-70996648D01*
X123167844Y-71006752D01*
X123096681Y-70971129D01*
X122396087Y-70270535D01*
X122378620Y-70248675D01*
X122373181Y-70240055D01*
X122311270Y-70185377D01*
X122305580Y-70180029D01*
X122287054Y-70161502D01*
X122287047Y-70161496D01*
X122272495Y-70150590D01*
X122264651Y-70144204D01*
X122209579Y-70095566D01*
X122193147Y-70087851D01*
X122171130Y-70074622D01*
X122156614Y-70063743D01*
X122087827Y-70037955D01*
X122078509Y-70034028D01*
X122012004Y-70002805D01*
X122012002Y-70002804D01*
X121995310Y-70000309D01*
X121969710Y-69993676D01*
X121952233Y-69987125D01*
X121952227Y-69987123D01*
X121879276Y-69981702D01*
X121812825Y-69956707D01*
X121782616Y-69924170D01*
X121693129Y-69784926D01*
X121526707Y-69640720D01*
X121526707Y-69640719D01*
X121326397Y-69549242D01*
X121163190Y-69525776D01*
X120587044Y-69525776D01*
X120518923Y-69505774D01*
X120472430Y-69452118D01*
X120462326Y-69381844D01*
X120497949Y-69310681D01*
X120613501Y-69195129D01*
X120702596Y-69158224D01*
X121144623Y-69158224D01*
X121429823Y-69096183D01*
X121615074Y-68977129D01*
X121759280Y-68810707D01*
X121759281Y-68810707D01*
X121850759Y-68610397D01*
X121850758Y-68610397D01*
X121874224Y-68447190D01*
X121874224Y-67461377D01*
X121812183Y-67176177D01*
X121781443Y-67128345D01*
X121761441Y-67060224D01*
X121781443Y-66992103D01*
X121835099Y-66945610D01*
X121887441Y-66934224D01*
X123185776Y-66934224D01*
X123253897Y-66954226D01*
G37*
%TD.AperFunction*%
%TA.AperFunction,Conductor*%
G36*
X117701031Y-66954226D02*
G01*
X117747524Y-67007882D01*
X117747524Y-67112566D01*
X117671242Y-67279603D01*
X117647776Y-67442810D01*
X117647776Y-67691000D01*
X118864000Y-67691001D01*
X118932121Y-67711003D01*
X118978614Y-67764659D01*
X118990000Y-67817001D01*
X118989999Y-68073000D01*
X118969997Y-68141121D01*
X118916341Y-68187614D01*
X118863999Y-68199000D01*
X117647776Y-68198999D01*
X117647776Y-68428623D01*
X117709817Y-68713822D01*
X117732744Y-68749498D01*
X117752745Y-68817619D01*
X117715840Y-68906713D01*
X116682459Y-69940095D01*
X116593364Y-69977000D01*
X116297369Y-69977000D01*
X116229248Y-69956998D01*
X116191371Y-69919121D01*
X116105129Y-69784926D01*
X115938707Y-69640720D01*
X115938707Y-69640719D01*
X115738397Y-69549242D01*
X115575190Y-69525776D01*
X114839377Y-69525776D01*
X114554177Y-69587817D01*
X114368926Y-69706871D01*
X114270177Y-69820832D01*
X114210451Y-69859215D01*
X114139454Y-69859215D01*
X114068955Y-69806439D01*
X114055131Y-69784928D01*
X114055130Y-69784927D01*
X113953487Y-69696852D01*
X113910000Y-69601628D01*
X113910000Y-69089036D01*
X113930002Y-69020915D01*
X113967881Y-68983037D01*
X113977074Y-68977129D01*
X114075823Y-68863168D01*
X114135549Y-68824785D01*
X114206546Y-68824785D01*
X114277045Y-68877561D01*
X114290869Y-68899072D01*
X114290870Y-68899073D01*
X114457293Y-69043280D01*
X114457293Y-69043281D01*
X114657603Y-69134758D01*
X114820810Y-69158224D01*
X114944000Y-69158224D01*
X114944000Y-68199000D01*
X115452000Y-68199000D01*
X115452000Y-69158224D01*
X115556623Y-69158224D01*
X115841823Y-69096183D01*
X116027074Y-68977129D01*
X116171280Y-68810707D01*
X116171281Y-68810707D01*
X116262759Y-68610397D01*
X116262758Y-68610397D01*
X116286224Y-68447190D01*
X116286224Y-68199000D01*
X115452000Y-68199000D01*
X114944000Y-68199000D01*
X114944000Y-67817000D01*
X114964002Y-67748879D01*
X115017658Y-67702386D01*
X115070000Y-67691000D01*
X116286224Y-67691000D01*
X116286224Y-67461377D01*
X116224183Y-67176177D01*
X116193443Y-67128345D01*
X116173441Y-67060224D01*
X116193443Y-66992103D01*
X116247099Y-66945610D01*
X116299441Y-66934224D01*
X117632910Y-66934224D01*
X117701031Y-66954226D01*
G37*
%TD.AperFunction*%
%TD*%
M02*
