%TF.GenerationSoftware,KiCad,Pcbnew,(5.99.0-2965-g3673c2369)*%
%TF.CreationDate,2020-08-26T10:35:24+03:00*%
%TF.ProjectId,pimentero,70696d65-6e74-4657-926f-2e6b69636164,rev?*%
%TF.SameCoordinates,Original*%
%TF.FileFunction,Paste,Top*%
%TF.FilePolarity,Positive*%
%FSLAX46Y46*%
G04 Gerber Fmt 4.6, Leading zero omitted, Abs format (unit mm)*
G04 Created by KiCad (PCBNEW (5.99.0-2965-g3673c2369)) date 2020-08-26 10:35:24*
%MOMM*%
%LPD*%
G01*
G04 APERTURE LIST*
%ADD10R,0.800000X0.900000*%
G04 APERTURE END LIST*
%TO.C,C4*%
G36*
G01*
X118161000Y-74491000D02*
X118161000Y-73591000D01*
G75*
G02*
X118411000Y-73341000I250000J0D01*
G01*
X119061000Y-73341000D01*
G75*
G02*
X119311000Y-73591000I0J-250000D01*
G01*
X119311000Y-74491000D01*
G75*
G02*
X119061000Y-74741000I-250000J0D01*
G01*
X118411000Y-74741000D01*
G75*
G02*
X118161000Y-74491000I0J250000D01*
G01*
G37*
G36*
G01*
X120211000Y-74491000D02*
X120211000Y-73591000D01*
G75*
G02*
X120461000Y-73341000I250000J0D01*
G01*
X121111000Y-73341000D01*
G75*
G02*
X121361000Y-73591000I0J-250000D01*
G01*
X121361000Y-74491000D01*
G75*
G02*
X121111000Y-74741000I-250000J0D01*
G01*
X120461000Y-74741000D01*
G75*
G02*
X120211000Y-74491000I0J250000D01*
G01*
G37*
%TD*%
%TO.C,R4*%
G36*
G01*
X107112000Y-70808000D02*
X107112000Y-69908000D01*
G75*
G02*
X107362000Y-69658000I250000J0D01*
G01*
X108012000Y-69658000D01*
G75*
G02*
X108262000Y-69908000I0J-250000D01*
G01*
X108262000Y-70808000D01*
G75*
G02*
X108012000Y-71058000I-250000J0D01*
G01*
X107362000Y-71058000D01*
G75*
G02*
X107112000Y-70808000I0J250000D01*
G01*
G37*
G36*
G01*
X109162000Y-70808000D02*
X109162000Y-69908000D01*
G75*
G02*
X109412000Y-69658000I250000J0D01*
G01*
X110062000Y-69658000D01*
G75*
G02*
X110312000Y-69908000I0J-250000D01*
G01*
X110312000Y-70808000D01*
G75*
G02*
X110062000Y-71058000I-250000J0D01*
G01*
X109412000Y-71058000D01*
G75*
G02*
X109162000Y-70808000I0J250000D01*
G01*
G37*
%TD*%
%TO.C,C3*%
G36*
G01*
X118161000Y-70173000D02*
X118161000Y-69273000D01*
G75*
G02*
X118411000Y-69023000I250000J0D01*
G01*
X119061000Y-69023000D01*
G75*
G02*
X119311000Y-69273000I0J-250000D01*
G01*
X119311000Y-70173000D01*
G75*
G02*
X119061000Y-70423000I-250000J0D01*
G01*
X118411000Y-70423000D01*
G75*
G02*
X118161000Y-70173000I0J250000D01*
G01*
G37*
G36*
G01*
X120211000Y-70173000D02*
X120211000Y-69273000D01*
G75*
G02*
X120461000Y-69023000I250000J0D01*
G01*
X121111000Y-69023000D01*
G75*
G02*
X121361000Y-69273000I0J-250000D01*
G01*
X121361000Y-70173000D01*
G75*
G02*
X121111000Y-70423000I-250000J0D01*
G01*
X120461000Y-70423000D01*
G75*
G02*
X120211000Y-70173000I0J250000D01*
G01*
G37*
%TD*%
%TO.C,R3*%
G36*
G01*
X118161000Y-72332000D02*
X118161000Y-71432000D01*
G75*
G02*
X118411000Y-71182000I250000J0D01*
G01*
X119061000Y-71182000D01*
G75*
G02*
X119311000Y-71432000I0J-250000D01*
G01*
X119311000Y-72332000D01*
G75*
G02*
X119061000Y-72582000I-250000J0D01*
G01*
X118411000Y-72582000D01*
G75*
G02*
X118161000Y-72332000I0J250000D01*
G01*
G37*
G36*
G01*
X120211000Y-72332000D02*
X120211000Y-71432000D01*
G75*
G02*
X120461000Y-71182000I250000J0D01*
G01*
X121111000Y-71182000D01*
G75*
G02*
X121361000Y-71432000I0J-250000D01*
G01*
X121361000Y-72332000D01*
G75*
G02*
X121111000Y-72582000I-250000J0D01*
G01*
X120461000Y-72582000D01*
G75*
G02*
X120211000Y-72332000I0J250000D01*
G01*
G37*
%TD*%
%TO.C,R2*%
G36*
G01*
X118161000Y-68014000D02*
X118161000Y-67114000D01*
G75*
G02*
X118411000Y-66864000I250000J0D01*
G01*
X119061000Y-66864000D01*
G75*
G02*
X119311000Y-67114000I0J-250000D01*
G01*
X119311000Y-68014000D01*
G75*
G02*
X119061000Y-68264000I-250000J0D01*
G01*
X118411000Y-68264000D01*
G75*
G02*
X118161000Y-68014000I0J250000D01*
G01*
G37*
G36*
G01*
X120211000Y-68014000D02*
X120211000Y-67114000D01*
G75*
G02*
X120461000Y-66864000I250000J0D01*
G01*
X121111000Y-66864000D01*
G75*
G02*
X121361000Y-67114000I0J-250000D01*
G01*
X121361000Y-68014000D01*
G75*
G02*
X121111000Y-68264000I-250000J0D01*
G01*
X120461000Y-68264000D01*
G75*
G02*
X120211000Y-68014000I0J250000D01*
G01*
G37*
%TD*%
%TO.C,C1*%
G36*
G01*
X112573000Y-68014000D02*
X112573000Y-67114000D01*
G75*
G02*
X112823000Y-66864000I250000J0D01*
G01*
X113473000Y-66864000D01*
G75*
G02*
X113723000Y-67114000I0J-250000D01*
G01*
X113723000Y-68014000D01*
G75*
G02*
X113473000Y-68264000I-250000J0D01*
G01*
X112823000Y-68264000D01*
G75*
G02*
X112573000Y-68014000I0J250000D01*
G01*
G37*
G36*
G01*
X114623000Y-68014000D02*
X114623000Y-67114000D01*
G75*
G02*
X114873000Y-66864000I250000J0D01*
G01*
X115523000Y-66864000D01*
G75*
G02*
X115773000Y-67114000I0J-250000D01*
G01*
X115773000Y-68014000D01*
G75*
G02*
X115523000Y-68264000I-250000J0D01*
G01*
X114873000Y-68264000D01*
G75*
G02*
X114623000Y-68014000I0J250000D01*
G01*
G37*
%TD*%
%TO.C,R5*%
G36*
G01*
X118161000Y-76650000D02*
X118161000Y-75750000D01*
G75*
G02*
X118411000Y-75500000I250000J0D01*
G01*
X119061000Y-75500000D01*
G75*
G02*
X119311000Y-75750000I0J-250000D01*
G01*
X119311000Y-76650000D01*
G75*
G02*
X119061000Y-76900000I-250000J0D01*
G01*
X118411000Y-76900000D01*
G75*
G02*
X118161000Y-76650000I0J250000D01*
G01*
G37*
G36*
G01*
X120211000Y-76650000D02*
X120211000Y-75750000D01*
G75*
G02*
X120461000Y-75500000I250000J0D01*
G01*
X121111000Y-75500000D01*
G75*
G02*
X121361000Y-75750000I0J-250000D01*
G01*
X121361000Y-76650000D01*
G75*
G02*
X121111000Y-76900000I-250000J0D01*
G01*
X120461000Y-76900000D01*
G75*
G02*
X120211000Y-76650000I0J250000D01*
G01*
G37*
%TD*%
D10*
%TO.C,Q1*%
X113223000Y-74279000D03*
X115123000Y-74279000D03*
X114173000Y-72279000D03*
%TD*%
%TO.C,C2*%
G36*
G01*
X112573000Y-70808000D02*
X112573000Y-69908000D01*
G75*
G02*
X112823000Y-69658000I250000J0D01*
G01*
X113473000Y-69658000D01*
G75*
G02*
X113723000Y-69908000I0J-250000D01*
G01*
X113723000Y-70808000D01*
G75*
G02*
X113473000Y-71058000I-250000J0D01*
G01*
X112823000Y-71058000D01*
G75*
G02*
X112573000Y-70808000I0J250000D01*
G01*
G37*
G36*
G01*
X114623000Y-70808000D02*
X114623000Y-69908000D01*
G75*
G02*
X114873000Y-69658000I250000J0D01*
G01*
X115523000Y-69658000D01*
G75*
G02*
X115773000Y-69908000I0J-250000D01*
G01*
X115773000Y-70808000D01*
G75*
G02*
X115523000Y-71058000I-250000J0D01*
G01*
X114873000Y-71058000D01*
G75*
G02*
X114623000Y-70808000I0J250000D01*
G01*
G37*
%TD*%
%TO.C,R1*%
G36*
G01*
X107112000Y-68014000D02*
X107112000Y-67114000D01*
G75*
G02*
X107362000Y-66864000I250000J0D01*
G01*
X108012000Y-66864000D01*
G75*
G02*
X108262000Y-67114000I0J-250000D01*
G01*
X108262000Y-68014000D01*
G75*
G02*
X108012000Y-68264000I-250000J0D01*
G01*
X107362000Y-68264000D01*
G75*
G02*
X107112000Y-68014000I0J250000D01*
G01*
G37*
G36*
G01*
X109162000Y-68014000D02*
X109162000Y-67114000D01*
G75*
G02*
X109412000Y-66864000I250000J0D01*
G01*
X110062000Y-66864000D01*
G75*
G02*
X110312000Y-67114000I0J-250000D01*
G01*
X110312000Y-68014000D01*
G75*
G02*
X110062000Y-68264000I-250000J0D01*
G01*
X109412000Y-68264000D01*
G75*
G02*
X109162000Y-68014000I0J250000D01*
G01*
G37*
%TD*%
%TO.C,R6*%
G36*
G01*
X110312000Y-72575000D02*
X110312000Y-73475000D01*
G75*
G02*
X110062000Y-73725000I-250000J0D01*
G01*
X109412000Y-73725000D01*
G75*
G02*
X109162000Y-73475000I0J250000D01*
G01*
X109162000Y-72575000D01*
G75*
G02*
X109412000Y-72325000I250000J0D01*
G01*
X110062000Y-72325000D01*
G75*
G02*
X110312000Y-72575000I0J-250000D01*
G01*
G37*
G36*
G01*
X108262000Y-72575000D02*
X108262000Y-73475000D01*
G75*
G02*
X108012000Y-73725000I-250000J0D01*
G01*
X107362000Y-73725000D01*
G75*
G02*
X107112000Y-73475000I0J250000D01*
G01*
X107112000Y-72575000D01*
G75*
G02*
X107362000Y-72325000I250000J0D01*
G01*
X108012000Y-72325000D01*
G75*
G02*
X108262000Y-72575000I0J-250000D01*
G01*
G37*
%TD*%
M02*
